<svg id="f6821c6b-090d-4fa3-98ac-61a5e1015935" data-name="Layer 1" xmlns="http://www.w3.org/2000/svg" width="690" height="495.25" viewBox="0 0 690 495.25"><title>Artboard 1</title><rect x="424.12" y="70.66" width="265.88" height="2" fill="#fff"/><rect y="70.66" width="269.83" height="2" fill="#fff"/><polygon points="176.64 469.89 174.4 469.89 162.79 481.04 162.79 469.89 160.62 469.89 160.62 493.81 162.79 493.81 162.79 482.15 175 493.81 178.07 493.81 164.86 481.12 176.64 469.89" fill="#fff"/><path d="M180.63,493.47l-.13.34h1.88l2.82-7.5h9.74l2.83,7.5h2.29l-9.82-25.5Zm5.24-8.94,4.19-11.12,4.19,11.12Z" fill="#fff"/><polygon points="225.27 489.81 208.1 468.48 208.1 493.81 209.85 493.81 209.85 474.09 227.02 495.25 227.02 469.89 225.27 469.89 225.27 489.81" fill="#fff"/><path d="M256.45,490.53c-1.18,1.57-3.65,2.36-7.34,2.36-5.09,0-10.58-3.43-10.58-11,0-5.59,3.22-11.23,10.4-11.23,4.07,0,7.6,1.68,9,4.27l.47.88v-3.93l-.12-.08a17.39,17.39,0,0,0-9.27-2.48c-7.66,0-12.8,5-12.8,12.48a12.48,12.48,0,0,0,3.1,8.55c2.31,2.52,5.79,3.85,10.06,3.85s7.58-1.23,9.19-3.56l0-.07v-7h-2.14Z" fill="#fff"/><path d="M265.27,493.47l-.13.34H267l2.82-7.5h9.74l2.83,7.5h2.29l-9.82-25.5Zm5.24-8.94,4.19-11.12,4.19,11.12Z" fill="#fff"/><path d="M311.49,493.25c-2.74.42-3.71-1.63-4.53-5.57-.69-3.31-2-4.92-4.72-5.5,3.41-.73,5.32-2.89,5.32-6.12a5.39,5.39,0,0,0-1.53-4c-1.58-1.56-4.37-2.27-8.52-2.21l-4.77.06v23.89h2.17V482.92h2.43c4.62,0,6.33.39,7.31,4.77.9,3.95,1.7,6.54,4.59,6.54a7,7,0,0,0,2.43-.45l.23-.1-.22-.46Zm-6.31-17c0,3.63-2.67,5.46-7.93,5.46h-2.34V471.22l2.7-.05c3.05-.08,5.12.46,6.33,1.63A4.51,4.51,0,0,1,305.18,476.21Z" fill="#fff"/><path d="M328.79,469.35c-7.58,0-12.87,5.09-12.87,12.37s5.29,12.51,12.87,12.51,12.83-5.07,12.83-12.34S336.35,469.35,328.79,469.35Zm10.49,12.45c0,7.66-5.27,11.09-10.49,11.09s-10.52-3.43-10.52-11.09,5.28-11.11,10.52-11.11S339.28,474.13,339.28,481.8Z" fill="#fff"/><path d="M362.46,469.35c-7.57,0-12.86,5.09-12.86,12.37s5.29,12.51,12.86,12.51,12.84-5.07,12.84-12.34S370,469.35,362.46,469.35ZM373,481.8c0,7.66-5.27,11.09-10.5,11.09s-10.52-3.43-10.52-11.09,5.29-11.11,10.52-11.11S373,474.13,373,481.8Z" fill="#fff"/><rect x="396.37" y="469.89" width="2.17" height="23.92" fill="#fff"/><path d="M416.57,480.28l-1.45-.55c-2.85-1.1-4.51-2.24-4.51-4.8,0-3.93,3.86-4.24,5.05-4.24a7.49,7.49,0,0,1,6.51,3.52l.46.69v-3.74l-.12-.07a13.17,13.17,0,0,0-6.82-1.74c-4.37,0-7.19,2.36-7.19,6,0,2.82,2,4.91,6.06,6.39l1.55.57c4.16,1.53,5.64,3.05,5.64,5.83s-2.43,4.75-6,4.75a8.1,8.1,0,0,1-7.33-3.76l-.45-.66v3.71l.12.07a14.27,14.27,0,0,0,7.6,2c4.88,0,8.16-2.7,8.16-6.71C423.82,483,419.8,481.5,416.57,480.28Z" fill="#fff"/><polygon points="435.21 469.89 433.05 469.89 433.05 493.81 447.27 493.81 447.27 492.42 435.21 492.42 435.21 469.89" fill="#fff"/><path d="M451.87,493.47l-.13.34h1.88l2.82-7.5h9.74l2.83,7.5h2.29l-9.83-25.5Zm5.24-8.94,4.19-11.12,4.19,11.12Z" fill="#fff"/><polygon points="495.92 489.81 479.19 469.03 478.75 468.48 478.75 493.81 480.5 493.81 480.5 474.09 497.67 495.25 497.67 469.89 495.92 469.89 495.92 489.81" fill="#fff"/><path d="M520.57,471.34c-2.41-1-5.51-1.45-10.36-1.45h-3.53v23.92h4.92c5.86,0,9.6-1.14,12.14-3.68a11.73,11.73,0,0,0,3.2-8.56C526.94,476.55,524.8,473.11,520.57,471.34Zm-11.72-.12H510c4.9,0,7.5.38,9.62,1.38,3.35,1.56,5,4.51,5,9a11.17,11.17,0,0,1-2.36,7.51c-2,2.34-5.34,3.34-11.17,3.34h-2.25Z" fill="#fff"/><path d="M79.26,198.8c0-10.32-6.53-15.28-19-19.86l-5.06-1.85c-13.63-5-19.28-11.68-19.28-20.15,0-12.07,9.74-18.79,22.69-18.79,8.86,0,16.16,2.14,21.9,5.55v9.05a25.31,25.31,0,0,0-22-11.87c-8.37,0-17.33,3.7-17.33,14.7,0,9.15,6.43,13,15.28,16.45l4.39,1.66c10.51,4,23.56,8.76,23.56,23.07,0,12-9.64,21.12-25.9,21.12-9.54,0-17.62-2.14-24.44-6.33V202.5c6.72,9.83,15.09,12.66,24.63,12.66C71.08,215.16,79.26,208.34,79.26,198.8Z" fill="#fff"/><path d="M141.47,217.88c-23.46,0-41.28-15.87-41.28-40.11s17.82-39.62,41.28-39.62,41.18,16,41.18,40.21S164.84,217.88,141.47,217.88Zm0-77c-16.16,0-35.24,10.51-35.24,37.19,0,26.48,19.08,37.09,35.24,37.09s35.15-10.61,35.15-37.09C176.62,151.39,157.63,140.88,141.47,140.88Z" fill="#fff"/><path d="M261.42,139.9v39.24c0,12.56-1,17.81-2.82,22.19-4.38,10.42-13.73,16.55-27.16,16.55-14,0-23.66-5.74-27.65-17.33-1.36-4-2.14-8.66-2.14-23V139.9h5.45V178c0,13.73.68,18.2,2,21.71,3.41,9,11.4,13.73,22.49,13.73,11.78,0,19.09-4.87,22.78-13.34,1.76-4,2.54-9.06,2.54-20.93V139.9Z" fill="#fff"/><path d="M337,142.82H309.72v73.7h-5.45v-73.7H277V139.9h60Z" fill="#fff"/><path d="M413.12,139.9v76.62h-5.45v-39H360v39h-5.45V139.9H360v34.56h47.71V139.9Z" fill="#fff"/><path d="M440.39,139.9H483v2.92H445.84v31.84h33.49v2.92H445.84v36h38.75v2.92h-44.2Z" fill="#fff"/><path d="M521.3,139.81c16.84-.3,32,3.31,32,19.47,0,12.55-9.05,19.37-23.37,20.05,13.54.59,18.79,5.36,21.42,18.11,2.53,12.17,5.75,20.44,15.77,18.89l.1.19a22.43,22.43,0,0,1-7.59,1.36c-8.38,0-11.1-7-14.22-20.73-3.4-15.19-9.83-16.26-24.72-16.26H512v35.63H506.5V140ZM512,178.46h8.47c12.27,0,26.78-3,26.78-18.7,0-12.75-9.25-17.72-25.61-17.33l-9.64.2Z" fill="#fff"/><path d="M639.69,139.9v79.83l-56.17-69.22v66h-4.09V136.79l56.17,69.8V139.9Z" fill="#fff"/><path d="M185.24,326.07C161.78,326.07,144,310.2,144,286s17.82-39.63,41.28-39.63,41.18,16,41.18,40.21S208.6,326.07,185.24,326.07Zm0-77c-16.16,0-35.24,10.52-35.24,37.19,0,26.48,19.08,37.09,35.24,37.09s35.14-10.61,35.14-37.09C220.38,259.58,201.4,249.06,185.24,249.06Z" fill="#fff"/><path d="M310.64,317.4c-8.76,6.62-20.15,8.67-30.08,8.67-28.72,0-42-19.47-42-39.82,0-24.44,17.33-39.92,41.47-39.92,11.3,0,21,2.63,29.7,8v9.15c-4.68-8.76-16.17-14.41-29.89-14.41-16.84,0-35.24,11.29-35.24,37.48,0,24.64,18.4,36.8,35.34,36.8,11,0,23.75-3,30.66-14.9Z" fill="#fff"/><path d="M333,248.09h42.65V251H338.5v31.83H372v2.92H338.5v36h38.74v2.92H333Z" fill="#fff"/><path d="M421.16,244.39l31,80.31h-5.75l-9.24-24.53h-33l-9.25,24.53h-4.38ZM405.68,296h29.79l-14.89-39.52Z" fill="#fff"/><path d="M529,248.09v79.83L472.86,258.7v66h-4.09V245L525,314.77V248.09Z" fill="#fff"/><path d="M247.93,353.22v38.9h20.81v1.54H245.05V353.22Z" fill="#fff"/><path d="M293.87,394.38c-12.38,0-21.78-8.37-21.78-21.17s9.4-20.91,21.78-20.91,21.73,8.43,21.73,21.22S306.2,394.38,293.87,394.38Zm0-40.64c-8.53,0-18.6,5.55-18.6,19.63s10.07,19.57,18.6,19.57,18.55-5.6,18.55-19.57S302.4,353.74,293.87,353.74Z" fill="#fff"/><path d="M332.82,353.22c8.79,0,13.82.83,17.73,2.47,7.24,3,10.74,8.84,10.74,17.26,0,6-1.85,10.95-5.4,14.49-3.95,4-10,6.22-20.65,6.22h-8.07V353.22Zm-2.77,39h4.32c9.65,0,15.92-1.59,19.62-5.91,2.57-3,4.16-7.29,4.16-13.25,0-8.74-3.54-13.52-8.83-16-3.91-1.85-8.79-2.42-16.8-2.42h-2.47Z" fill="#fff"/><path d="M408.62,376.91v11.51c-2.57,3.7-7.61,6-15.52,6-15.77,0-22.3-10.33-22.3-21,0-12.9,9-21.12,21.68-21.12a29.34,29.34,0,0,1,15.78,4.22v4.82c-2.47-4.62-8.63-7.6-15.88-7.6-9,0-18.4,5.85-18.4,19.83,0,13.1,9.56,19.37,18.71,19.37,5.6,0,10.69-1,13.1-4.37V376.91Z" fill="#fff"/><path d="M422.5,353.22H445v1.55H425.37v16.8h17.68v1.54H425.37v19h20.45v1.54H422.5Z" fill="#fff"/><rect y="431.01" width="690" height="2" fill="#fff"/><path d="M391.73,85.52c1.34,9.16-3.5,24.06-14.76,28.22s-21.66.05-25.51-1.68a22.61,22.61,0,0,1-7.15-5.58c-.44-.49-.83-1-.43-1.52s.64-.17,1.24.06a62,62,0,0,0,7.87,3.52,22.35,22.35,0,0,0,19.51-2c5.95-3.54,10.18-9.67,9.3-19.18a31.5,31.5,0,0,0-6.66-16.45,22.15,22.15,0,0,0-3.46,1.6,18.79,18.79,0,0,1-5.71,1.6c-2.11.39-3,1.22-3.22.87s.07-1.06.58-1.76,3.31-3.22,4.2-4.26a11.75,11.75,0,0,0,1.64-10.19c-1.45-5.13-5.26-9.37-8.77-12.39s-10.19-5-13.86-3.22-4.44,4.66-4.06,8.12,3.1,11.53,5.3,16.62,2.62,6.37,2.7,6.6-2.75-1-6-2.59a89.94,89.94,0,0,1-10.74-6.58c-1.88-1.43-2.38-2.08-2.32-2.29a13.37,13.37,0,0,0,1.28-2.27,28.74,28.74,0,0,0,1.58-11c-.21-4.23-2.54-8.43-3.41-9.92s-1.45-1.33-1.3-1.77,3.37-2.4,5-3.08,9.68-3.72,20.78,0,20.4,15.94,25.12,22.54S390.41,76.36,391.73,85.52Zm-6.29,15.64a29.11,29.11,0,0,0,2.1-16.72c-.89-5.48-4.16-12.84-7-17.11a81.21,81.21,0,0,0-6-7.55c-.89-1.09-2.83-3.13-3-2.31s1.42,3.33,6.14,10.34a43.42,43.42,0,0,1,7,16.77,26.91,26.91,0,0,1-1.51,15.55c-2.54,5.49-8.4,9-8.4,9-2.37,1.4-7.84,3.29-6.44,3.22a21.38,21.38,0,0,0,7.32-1.74C378.88,109.19,383.61,105.12,385.44,101.16Z" fill="#fff" fill-rule="evenodd"/><path d="M361.61,85.09a64.15,64.15,0,0,0,1.87,11.14c.52,1.93,1.33,3.75.55,5.13s-2.14,1.19-3.09,1.22-9.63-.31-13.81-.12-15.72.29-19.44.64a49.24,49.24,0,0,0-5.61.67c-.28.09-.48-.28.14-.83s2.93-2.88,3.08-3a10.69,10.69,0,0,0-3.65-.65c-1.28,0-4.21.08-5.34.18s-2-.23-.53-1.28,4.89-3.29,11.5-3.86,12.47-.7,13.51-.7,1.46,0,1.46,0a49.88,49.88,0,0,0,1.27-6.14,39.18,39.18,0,0,0,.23-9c-.33-2.27-1-5.89-1-5.89s2.63,1.21,4.14,1.81,3.57,1.32,3.81,1.42a6.29,6.29,0,0,1,.89,2.94,58.63,58.63,0,0,1-.68,7.73c-.41,2.72-1.07,7.52-1.09,8s1.05.76,2.68.81,2.67.24,2.77-.33a38.65,38.65,0,0,0-.64-7.29,76.79,76.79,0,0,0-3.05-13.46c-1.79-5-5.55-12.93-6.58-18.47s-1.7-9,4.21-11.07c4.71-1.68,10.23,3,11.2,4s5.3,5.49,6.56,9.41.79,7.68-1.11,9.86-4.29,4.22-4.45,5.18A106.49,106.49,0,0,0,361.61,85.09ZM349.48,59.93a91.13,91.13,0,0,0,3.27,10.56c.83,2.26,1.75,5.27,2.48,8s1.81,8.91,2.25,12.16.49,6.19.19,6.43a5.7,5.7,0,0,1-2.35.42c-1.25.07-7.27.18-9.9.38a68.33,68.33,0,0,0-9.8,1.3c-2.76.71-3.74,1.2-3.75,1.33s5.15-.3,7.23-.42,9.25-.4,12-.51,6.11-.14,7.05-.23,1.12-.09,1.31-.28a16.1,16.1,0,0,0,.15-3.22,56.28,56.28,0,0,0-.81-7.61c-.49-2.71-1.37-8.89-2.57-13s-3.66-11.82-4.44-14.62-1.86-7.48-1.93-8.35-.34-1.42-.57-1.53-.42.41-.44,1.57A28.09,28.09,0,0,0,349.48,59.93Zm-1,17.56c-.84-.24-1.12-.75-1.19.43s-.29,7.38-.51,8.87-.79,5.69-1.08,6.64a5.66,5.66,0,0,1-.46,1.2,2.07,2.07,0,0,0,1.11,0c.59-.15,1.12-.8,1.33-2s.76-4,1.09-6.45.63-7.17.59-7.62S349.45,77.75,348.44,77.49ZM330,95.87a21.36,21.36,0,0,0-5.6.84c-1,.32-1.43.48-.82.56s2.41.09,3.43.22a10.87,10.87,0,0,0,3,.23,26.37,26.37,0,0,0,4-1c1-.3,2.49-.6.67-.64A44.1,44.1,0,0,0,330,95.87Z" fill="#fff" fill-rule="evenodd"/><path d="M329,18.23c.52.19.78-.16.76.48a8.44,8.44,0,0,1-.58,2.79A7.17,7.17,0,0,1,327,23.81c-.58.33-2.21.48-5.06.77a29.38,29.38,0,0,1-7-.11c-1.77-.25-2.6-.59-2-.09a4.44,4.44,0,0,0,1.75,1.09,26.17,26.17,0,0,0,2.91.72c.77.17.37.32.53,1.09a30.54,30.54,0,0,0,2.07,5.09,9.28,9.28,0,0,0,3.68,3.85,21.51,21.51,0,0,1,4,1.91,16.45,16.45,0,0,1,2.91,4.52,21,21,0,0,1,2.08,11,22,22,0,0,1-2.24,8c-.68,1.14-1.81,2.6-1.91,3.73a16.26,16.26,0,0,0,1.11,5.24,36.46,36.46,0,0,0,2.64,5.58c.74,1.15,1.67,2.28,1.45,2.55s-.83.18-1.65,0a7.85,7.85,0,0,1-3-1.42A8.63,8.63,0,0,1,327,74.55a38.4,38.4,0,0,1-1.68-3.5c-.55-1.14-.46-.53-.61.11a10.25,10.25,0,0,0,.21,3.51,6.45,6.45,0,0,0,1.33,2.73c.54.57.74.68.38.94s-.63.12-1.3,0-1.74-.2-2.17-.3-.92-.56-1.85-2.21-.86-3-1-7.14a38.35,38.35,0,0,0-1.38-9.59c-.78-2.67-4.37-8.74-6.14-11.76s-4.16-7.07-5.08-10.26-1.46-10.53-2-13.36A32.12,32.12,0,0,0,304,17.91c-.16-.26-.31-.14-1.24-.57s-3.23-1.44-5.05-2.5-3.91-2.6-4.54-3.08-2-1.3-1.83-1.83,1.7-.24,2.79-.27,5.66.87,7.35,1.08,4.54.84,4.83.91.25-.73.51-1.59a31.74,31.74,0,0,1,1.79-4.72A55.58,55.58,0,0,1,311.75.51c.67-1,.84-.32.89,0s.22,1.65.5,3.6a28.6,28.6,0,0,1-.09,6.21c-.15,1-.12,1.07.15,1.11a22.33,22.33,0,0,1,3.27.84,45.66,45.66,0,0,1,5.64,2.87A73.33,73.33,0,0,0,329,18.23ZM309.26,8.05c-.49,1.36-.69,2.31-.83,2.81s-.23.92.22.76a3.18,3.18,0,0,1,1.06-.27c.49,0,1,.3,1.22-1a16.36,16.36,0,0,0,.32-3.84c-.05-1,0-2.31-.48-1.63A15.93,15.93,0,0,0,309.26,8.05Zm-4.42,8.2c1.15,0,.9-1,.76-1.76s-1.27-1.15-2.31-1.53a15.46,15.46,0,0,0-4.33-.78c-1.57-.06-1,.51-.28,1s1.64,1,2.92,1.82A6.1,6.1,0,0,0,304.84,16.25Zm10.54,0c-.69-.15-.82-.15-1.11-.23s0,1.35-1.3,1.18a1.13,1.13,0,0,1-1.09-1.39c0-.2-.24-.3-.54-.25s-.62-.1-.62.41a2.22,2.22,0,0,0,2,2.34,3.76,3.76,0,0,0,3.17-1C316.34,16.94,316.5,16.49,315.38,16.27Zm-1.7,26.16c1.46,2.74,4.31,7,7,8.78s3.31,2.31,3.44,2.14a.73.73,0,0,0,.16-1c-.3-.47-2.51-3.13-4-5.53s-4.84-7.65-6.22-10.55-2.39-5-3.13-6.18-1.37-2.32-1.31-1.63A69.53,69.53,0,0,0,311,36.08,32.2,32.2,0,0,0,313.68,42.43Zm14.55,10.62a34.14,34.14,0,0,1-1.42,8,24,24,0,0,0-1.06,2.7c.07.17.05.68,1-.57a21.08,21.08,0,0,0,3.61-8.29c.41-3.23.23-7-.94-9.29a8.18,8.18,0,0,0-2.59-3.22c-.38-.31-.57-.5-.28.81S328.4,49.71,328.23,53.05Zm-4.62,4.23c-.67-.64-1.4-1.35-1.37-.91s.35,1.8.49,2.71.67,3,.83,2.58.78-1.89.88-2.31S324.82,58.44,323.61,57.28Z" fill="#fff" fill-rule="evenodd"/></svg>